<svg xmlns="http://www.w3.org/2000/svg" width="67" height="67" viewBox="0 0 67 67"><g transform="translate(-274 -469)"><g transform="translate(274 469)" fill="none"><path d="M33.5,0A33.5,33.5,0,0,1,51.658,61.657,33.122,33.122,0,0,1,33.5,67a33.5,33.5,0,0,1,0-67Z" stroke="none"/><path d="M 33.5 2 C 29.24665069580078 2 25.12157821655273 2.83258056640625 21.2393913269043 4.474601745605469 C 17.48862838745117 6.061038970947266 14.11968994140625 8.332588195800781 11.22613906860352 11.22613906860352 C 8.332588195800781 14.11968994140625 6.061038970947266 17.48862838745117 4.474601745605469 21.2393913269043 C 2.83258056640625 25.12157821655273 2 29.24665069580078 2 33.5 C 2 37.75334930419922 2.83258056640625 41.87841796875 4.474601745605469 45.76061248779297 C 6.061038970947266 49.51136779785156 8.332588195800781 52.88031005859375 11.22613906860352 55.77386093139648 C 14.11968994140625 58.66741180419922 17.48862838745117 60.93896102905273 21.2393913269043 62.52539825439453 C 25.12157821655273 64.16741943359375 29.24665069580078 65 33.5 65 C 36.61808013916016 65 39.69845962524414 64.54892730712891 42.65557861328125 63.65930938720703 C 45.49298858642578 62.80570983886719 48.1519775390625 61.56985092163086 50.55915069580078 59.98574066162109 C 54.94335174560547 57.10235977172852 58.58139801025391 53.19908142089844 61.08000183105469 48.69787979125977 C 62.34632110595703 46.41661071777344 63.32215118408203 43.98500823974609 63.98038101196289 41.47063064575195 C 64.65695190429688 38.88618087768555 65 36.2044677734375 65 33.5 C 65 29.24665069580078 64.16741943359375 25.12157821655273 62.52539825439453 21.2393913269043 C 60.93896102905273 17.48862838745117 58.66741180419922 14.11968994140625 55.77386093139648 11.22613906860352 C 52.88031005859375 8.332588195800781 49.51136779785156 6.061038970947266 45.76061248779297 4.474601745605469 C 41.87841796875 2.83258056640625 37.75334930419922 2 33.5 2 M 33.5 0 C 52.00154113769531 0 67 14.99845886230469 67 33.5 C 67 45.21138763427734 60.99037170410156 55.51916122436523 51.65813064575195 61.65673828125 C 46.60845947265625 64.97982025146484 40.2901496887207 67 33.5 67 C 14.99845886230469 67 0 52.00154113769531 0 33.5 C 0 14.99845886230469 14.99845886230469 0 33.5 0 Z" stroke="none" fill="#4071f2"/></g><path d="M28.816,18.231H20.867V10.283a1.318,1.318,0,1,0-2.636,0v7.949H10.283a1.318,1.318,0,0,0,0,2.636h7.949v7.949a1.318,1.318,0,0,0,2.636,0V20.867h7.949a1.318,1.318,0,0,0,0-2.636Z" transform="translate(288.035 483.035)" fill="#4071f2"/></g></svg>