<svg xmlns="http://www.w3.org/2000/svg" width="18.75" height="27.273" viewBox="0 0 18.75 27.273"><path d="M5.117,24.2a1.705,1.705,0,0,0,.286.942l.91,1.368a1.7,1.7,0,0,0,1.419.761h3.287a1.7,1.7,0,0,0,1.419-.761l.91-1.368a1.7,1.7,0,0,0,.286-.942l0-2.043H5.114l0,2.043ZM0,9.375a9.323,9.323,0,0,0,2.32,6.167A15.308,15.308,0,0,1,5.1,20.414c0,.014,0,.028.006.042h8.536c0-.014,0-.027.006-.042a15.308,15.308,0,0,1,2.781-4.871A9.373,9.373,0,1,0,0,9.375ZM9.375,5.114A4.266,4.266,0,0,0,5.114,9.375a.852.852,0,1,1-1.7,0A5.972,5.972,0,0,1,9.375,3.409a.852.852,0,1,1,0,1.7Z" transform="translate(0 0)" fill="#fc7b00"/></svg>