<svg xmlns="http://www.w3.org/2000/svg" width="62.091" height="59" viewBox="0 0 62.091 59"><g transform="translate(-3 -4.5)"><path d="M18.523,18.261A7.761,7.761,0,1,1,10.761,10.5a7.761,7.761,0,0,1,7.761,7.761Z" transform="translate(0 6.418)" fill="#fc7b00"/><path d="M25.273,12.261A7.761,7.761,0,1,1,17.511,4.5a7.761,7.761,0,0,1,7.761,7.761Z" transform="translate(7.22 0)" fill="#fc7b00"/><path d="M34.273,12.261A7.761,7.761,0,1,1,26.511,4.5a7.761,7.761,0,0,1,7.761,7.761Z" transform="translate(16.848 0)" fill="#fc7b00"/><path d="M41.023,18.261A7.761,7.761,0,1,1,33.261,10.5a7.761,7.761,0,0,1,7.761,7.761Z" transform="translate(24.068 6.418)" fill="#fc7b00"/><path d="M47.425,29.286c-2.7-3.167-4.967-5.868-7.7-9.034a13.171,13.171,0,0,0-5.433-4.1,6.285,6.285,0,0,0-1.024-.279,15.625,15.625,0,0,0-2.422-.124,13.024,13.024,0,0,0-2.453.155,6.285,6.285,0,0,0-1.024.279,13.374,13.374,0,0,0-5.433,4.1c-2.7,3.167-4.967,5.868-7.7,9.034C10.17,33.384,5.172,37.885,6.1,44.188a9.747,9.747,0,0,0,7.234,7.2c2.266.466,9.5-1.366,17.2-1.366H31.1c7.7,0,14.933,1.8,17.2,1.366a9.794,9.794,0,0,0,7.234-7.2c.962-6.333-4.036-10.835-8.1-14.9Z" transform="translate(3.199 12.034)" fill="#fc7b00"/></g></svg>